# Object Export From Tinkercad Server 2015

mtllib obj.mtl

o obj_0
v -3.3412 		-0.4499 		2.4747
v -2.4548 		-0.7863 		2.6864
v -3.2869 		-0.6324 		3.0773
v -2.7589 		-0.7863 		3.3531
v -3.6734 		-0.2121 		2.8755
v -3.8642 		0.3621 		2.1986
v -4.2117 		0.3621 		2.0367
v -3.5838 		-0.4499 		2.007
v -4.1349 		-0.4499 		1.7502
v -3.1448 		-0.7284 		1.8106
v -3.6359 		-0.7445 		1.4271
v -3.8031 		-0.7863 		1.0877
v -3.7112 		0.3621 		2.4936
v -3.8149 		0.3621 		2.8016
v -2.5722 		-0.7863 		1.9838
v -4.033 		-0.7863 		1.0445
v -4.2185 		-0.4499 		1.7362
v -4.2953 		0.3621 		2.0227
v -4.6144 		-0.7863 		1.0016
v -4.6036 		-0.6988 		1.384
v -4.5943 		-0.4497 		1.7082
v -4.5882 		-0.0773 		1.925
v -4.586 		0.3621 		2.0012
v -3.524 		-0.6988 		3.5905
v -3.8735 		-0.4497 		3.4203
v -5.6441 		-0.0773 		5.4444
v -5.8306 		-0.6988 		7.6355
v -5.167 		-0.7863 		7.1231
v -5.6312 		-0.7863 		8.4547
v -6.3384 		-0.6988 		8.7547
v -7.3546 		-0.6988 		9.5755
v -6.8565 		-0.7863 		9.7499
v -10.5602 		-0.7863 		9.0601
v -10.4467 		-0.6988 		8.3504
v -9.8816 		-0.6988 		9.171
v -11.1116 		-0.7863 		7.8745
v -10.7277 		-0.6988 		7.1816
v -11.0763 		-0.7863 		5.6262
v -9.7895 		-0.4497 		8.701
v -9.1392 		-0.4497 		9.3011
v -6.2288 		-0.4497 		7.5565
v -6.6868 		-0.0773 		8.0411
v -6.694 		-0.4497 		8.5926
v -7.2657 		-0.0773 		8.833
v -7.5665 		-0.4497 		9.2976
v -8.162 		-0.0773 		9.2659
v -9.4693 		0.3621 		8.5529
v -10.0433 		-0.0773 		7.1547
v -9.9091 		0.3621 		7.4868
v -9.794 		-0.0773 		5.2983
v -9.8522 		0.3621 		5.9087
v -9.2377 		-0.0773 		4.1389
v -8.9695 		0.3621 		3.9258
v -8.2236 		-0.0773 		3.0804
v -8.0229 		0.3621 		3.0372
v -6.8626 		-0.0773 		2.3326
v -6.821 		0.3621 		2.4014
v -9.5522 		-0.0773 		8.5918
v -8.7914 		0.3621 		9.132
v -8.8429 		-0.0773 		9.1965
v -8.1896 		0.3621 		9.1928
v -7.5988 		0.3621 		8.9626
v -6.7794 		0.3621 		8.0195
v -5.7326 		0.3621 		5.414
v -4.5817 		-0.7863 		5.8305
v -9.1863 		-0.6988 		9.6648
v -9.4225 		-0.7863 		9.999
v -8.5539 		-0.6988 		9.8294
v -8.2386 		-0.7863 		10.1861
v -7.9941 		-0.6988 		9.7905
v -10.4583 		-0.6988 		5.1659
v -10.2676 		-0.7863 		3.7012
v -9.8415 		-0.6988 		3.8831
v -9.1624 		-0.7863 		2.5146
v -8.6989 		-0.6988 		2.6904
v -7.3671 		-0.7863 		1.4992
v -7.158 		-0.6988 		1.8443
v -8.5164 		-0.4497 		9.5065
v -8.0947 		-0.4497 		9.4762
v -10.3176 		-0.4497 		7.1655
v -10.0603 		-0.4497 		5.2453
v -9.4797 		-0.4497 		4.0364
v -8.4141 		-0.4497 		2.9241
v -6.981 		-0.4497 		2.1369
v -4.586 		7.4822 		2.0012
v -6.6003 		7.4822 		7.5213
v -7.3349 		7.4822 		8.7799
v -5.3165 		7.4822 		4.7734
v -3.8149 		7.4822 		2.8016
v -8.1856 		7.4822 		9.192
v -8.7946 		7.4822 		9.1306
v -9.4688 		7.4822 		8.5534
v -9.9089 		7.4822 		7.4874
v -9.8524 		7.4822 		5.9097
v -8.9725 		7.4822 		3.9295
v -7.7367 		7.4822 		2.8484
v -6.4559 		7.4822 		2.2774
v -4.2117 		7.4822 		2.0367
v -3.7112 		7.4822 		2.4935
v -3.8642 		7.4822 		2.1986
v -1.282 		-0.7863 		1.9999
v -2.3004 		-0.7863 		1.9999
v -3.8089 		-0.7863 		0.9999
v -4.4316 		-0.7863 		0.9999
v -13.2875 		-8.4458 		1.3413
v -10.4745 		-7.5509 		0.9999
v -13.71 		-8.4352 		0.9999
v -10.3101 		-7.8527 		1.7068
v -12.4856 		-8.4377 		1.5764
v -9.3049 		-8.0211 		1.9799
v -7.1725 		-6.2584 		1.9237
v -7.4598 		-5.9924 		1.7068
v -4.885 		-4.4693 		1.9999
v -4.6932 		-3.4265 		1.9237
v -5.0378 		-3.224 		1.7068
v -5.2683 		-3.0886 		1.3825
v -5.3491 		-3.0409 		0.9999
v -10.4319 		-7.6295 		1.3825
v -7.6519 		-5.8144 		1.3825
v -7.7192 		-5.7517 		0.9999
v -6.8381 		-6.5763 		1.9999
v -8.4683 		-7.8051 		1.9999
v -4.1349 		8.2942 		1.7502
v -3.5838 		8.2942 		2.007
v -3.9494 		8.6306 		1.0584
v -2.9068 		8.6306 		1.5443
v -3.3412 		8.2942 		2.4747
v -3.6734 		8.0564 		2.8755
v -3.2869 		8.4767 		3.0774
v -2.7589 		8.6306 		3.3531
v -2.4478 		8.6306 		2.4291
v -4.5943 		8.2942 		1.7084
v -4.6144 		8.6306 		1.0016
v -6.3155 		7.9216 		2.1563
v -6.5365 		8.5431 		1.6443
v -6.404 		8.294 		1.9511
v -10.0131 		8.5431 		4.1554
v -10.3756 		8.6306 		3.867
v -11.0763 		8.6306 		5.6262
v -10.7245 		8.5431 		6.5655
v -11.2143 		8.6306 		7.1522
v -8.2779 		8.5431 		9.8292
v -7.4293 		8.6306 		10.038
v -7.3546 		8.5431 		9.5755
v -6.5401 		8.6306 		9.5647
v -6.3384 		8.5431 		8.7547
v -5.6312 		8.6306 		8.4547
v -5.9356 		8.5431 		7.9501
v -9.6402 		8.294 		4.2911
v -10.3145 		8.294 		6.5827
v -9.8389 		7.9216 		5.4466
v -10.0428 		7.9216 		7.1638
v -10.2334 		8.294 		7.7386
v -9.5522 		7.9216 		8.5918
v -9.5585 		8.294 		8.971
v -8.8429 		7.9216 		9.1965
v -8.9805 		8.294 		9.3842
v -9.5779 		8.5431 		9.4333
v -8.8755 		8.5431 		9.7762
v -5.5991 		7.9216 		5.3693
v -5.3515 		8.294 		5.463
v -4.9812 		8.5431 		5.6031
v -4.4118 		8.6306 		5.5575
v -5.167 		8.6306 		7.1231
v -8.118 		8.6306 		1.8348
v -8.2157 		8.5431 		2.3606
v -6.4713 		8.6306 		1.2261
v -9.4146 		8.6306 		2.7291
v -10.6367 		8.5431 		7.7994
v -10.9229 		8.6306 		8.4346
v -10.1443 		8.5431 		8.8641
v -9.1694 		8.6306 		10.0976
v -8.4013 		8.6306 		10.2165
v -7.7958 		7.9216 		2.7882
v -8.7113 		7.9216 		3.5049
v -6.5953 		7.9216 		7.804
v -7.2657 		7.9216 		8.833
v -8.162 		7.9216 		9.2659
v -7.9641 		8.294 		2.6168
v -8.3142 		8.294 		9.5062
v -6.3309 		8.294 		7.8625
v -7.0686 		8.294 		8.984
v -7.5665 		8.294 		9.2976
v -0.153 		8.6306 		0.9999
v -0.153 		8.6306 		1.4475
v -2.0386 		8.6306 		2.5877
v 9.8622 		-0.7863 		1.9838
v 10.6312 		-0.4499 		2.4747
v 9.7448 		-0.7863 		2.6864
v 10.4942 		-0.7219 		1.7781
v 10.5769 		-0.6324 		3.0774
v 10.0488 		-0.7863 		3.3532
v 10.9634 		-0.2121 		2.8755
v 11.0931 		-0.7863 		1.0877
v 11.2394 		-0.7863 		1.0584
v 10.9272 		-0.7448 		1.4256
v 11.4249 		-0.4499 		1.7502
v 10.8738 		-0.4499 		2.007
v 11.5017 		0.3621 		2.0367
v 11.1542 		0.3621 		2.1986
v 11.0012 		0.3621 		2.4936
v 11.1049 		0.3621 		2.8016
v 11.9044 		-0.7863 		1.0016
v 11.8843 		-0.4499 		1.7084
v 11.876 		0.3621 		2.0012
v 13.6056 		-0.0773 		2.1564
v 13.7453 		0.3621 		2.2774
v 13.8267 		-0.6988 		1.6443
v 13.6942 		-0.4497 		1.9512
v 17.3031 		-0.6988 		4.1554
v 17.6656 		-0.7863 		3.867
v 18.3663 		-0.7863 		5.6262
v 18.0145 		-0.6988 		6.5655
v 18.5043 		-0.7863 		7.1522
v 15.5679 		-0.6988 		9.8292
v 14.7193 		-0.7863 		10.038
v 14.6446 		-0.6988 		9.5755
v 13.8301 		-0.7863 		9.5647
v 13.6284 		-0.6988 		8.7547
v 12.9212 		-0.7863 		8.4547
v 13.2256 		-0.6988 		7.9501
v 16.9302 		-0.4497 		4.2911
v 17.6045 		-0.4497 		6.5827
v 17.129 		-0.0773 		5.4466
v 17.3328 		-0.0773 		7.1638
v 17.5234 		-0.4497 		7.7386
v 16.8422 		-0.0773 		8.5918
v 16.8485 		-0.4497 		8.971
v 16.1329 		-0.0773 		9.1965
v 16.2705 		-0.4497 		9.3842
v 16.8679 		-0.6988 		9.4333
v 16.1655 		-0.6988 		9.7762
v 12.6094 		0.3621 		4.7775
v 12.8891 		-0.0773 		5.3693
v 12.6415 		-0.4497 		5.463
v 12.2712 		-0.6988 		5.6031
v 11.7018 		-0.7863 		5.5575
v 12.457 		-0.7863 		7.1231
v 15.408 		-0.7863 		1.8348
v 15.5057 		-0.6988 		2.3606
v 13.7613 		-0.7863 		1.2261
v 16.7046 		-0.7863 		2.7291
v 17.9267 		-0.6988 		7.7994
v 18.2129 		-0.7863 		8.4346
v 17.4343 		-0.6988 		8.8641
v 16.4594 		-0.7863 		10.0976
v 15.6913 		-0.7863 		10.2165
v 15.0229 		0.3621 		2.8461
v 15.0858 		-0.0773 		2.7882
v 16.2595 		0.3621 		3.9258
v 16.0013 		-0.0773 		3.5049
v 13.8853 		-0.0773 		7.804
v 13.8909 		0.3621 		7.523
v 14.5557 		-0.0773 		8.833
v 14.6238 		0.3621 		8.779
v 15.452 		-0.0773 		9.2659
v 15.4799 		0.3621 		9.1928
v 16.0816 		0.3621 		9.1319
v 16.7585 		0.3621 		8.5539
v 17.1991 		0.3621 		7.4868
v 17.1422 		0.3621 		5.9087
v 15.2541 		-0.4497 		2.6168
v 15.6042 		-0.4497 		9.5062
v 13.6209 		-0.4497 		7.8625
v 14.3586 		-0.4497 		8.984
v 14.8565 		-0.4497 		9.2976
v 11.876 		7.4822 		2.0012
v 13.0216 		7.4822 		5.4122
v 14.0683 		7.4822 		8.0169
v 11.1049 		7.4822 		2.8016
v 14.111 		7.4822 		2.4013
v 15.3146 		7.4822 		3.0384
v 16.2598 		7.4822 		3.926
v 17.1419 		7.4822 		5.9077
v 17.1988 		7.4822 		7.4881
v 16.7588 		7.4822 		8.5534
v 16.0846 		7.4822 		9.1306
v 15.4756 		7.4822 		9.192
v 14.8896 		7.4822 		8.9627
v 11.5017 		7.4822 		2.0367
v 11.1542 		7.4822 		2.1986
v 11.0012 		7.4822 		2.4935
v 11.0989 		-0.7863 		0.9999
v 8.572 		-0.7863 		1.9999
v 9.5904 		-0.7863 		1.9999
v 15.7583 		-7.8051 		1.9999
v 14.4625 		-6.2584 		1.9237
v 14.1296 		-6.5776 		1.9999
v 18.4185 		-8.337 		1.8144
v 21 		-8.4352 		0.9999
v 18.2696 		-7.7619 		0.9999
v 20.8201 		-8.4409 		1.2231
v 17.7 		-7.6194 		1.3825
v 15.9227 		-6.4853 		0.9999
v 17.5776 		-7.8423 		1.7068
v 14.7498 		-5.9924 		1.7068
v 13.2797 		-3.8968 		0.9999
v 13.2018 		-3.9485 		1.3825
v 12.9786 		-4.0935 		1.7068
v 12.6448 		-4.3104 		1.9237
v 12.2523 		-4.5679 		1.9999
v 20.4561 		-8.4469 		1.3869
v 14.9419 		-5.8144 		1.3825
v 11.0244 		7.9216 		2.8436
v 10.6312 		8.2942 		2.4747
v 10.7953 		8.294 		2.9632
v 10.4529 		8.5431 		3.1421
v 9.7378 		8.6306 		2.4291
v 10.0489 		8.6306 		3.3531
v 10.8738 		8.2942 		2.007
v 11.4249 		8.2942 		1.7502
v 10.1968 		8.6306 		1.5443
v 11.2394 		8.6306 		1.0584
v 11.8843 		8.2942 		1.7084
v 11.9044 		8.6306 		1.0016
v 14.1526 		7.9216 		2.3326
v 14.448 		8.5431 		1.8443
v 12.9212 		8.6306 		8.4547
v 13.6284 		8.5431 		8.7547
v 13.1206 		8.5431 		7.6355
v 14.6446 		8.5431 		9.5755
v 14.1465 		8.6306 		9.7499
v 17.8502 		8.6306 		9.0601
v 17.7367 		8.5431 		8.3504
v 17.1716 		8.5431 		9.171
v 18.4016 		8.6306 		7.8745
v 18.0177 		8.5431 		7.1816
v 18.3663 		8.6306 		5.6262
v 17.7483 		8.5431 		5.1659
v 17.0795 		8.294 		8.701
v 16.4292 		8.294 		9.3011
v 14.271 		8.294 		2.1369
v 13.5188 		8.294 		7.5565
v 13.9768 		7.9216 		8.0411
v 12.9342 		7.9216 		5.4444
v 13.984 		8.294 		8.5926
v 14.5557 		7.9216 		8.833
v 14.8565 		8.294 		9.2976
v 15.452 		7.9216 		9.2659
v 16.1329 		7.9216 		9.1965
v 15.8064 		8.294 		9.5065
v 15.5136 		7.9216 		3.0804
v 16.5277 		7.9216 		4.1389
v 17.084 		7.9216 		5.2983
v 17.3333 		7.9216 		7.1547
v 16.8422 		7.9216 		8.5918
v 12.457 		8.6306 		7.1231
v 10.8141 		8.5431 		3.5905
v 11.8718 		8.6306 		5.8306
v 16.4763 		8.5431 		9.6648
v 16.7125 		8.6306 		9.999
v 15.8439 		8.5431 		9.8294
v 15.5286 		8.6306 		10.1861
v 15.2841 		8.5431 		9.7905
v 14.6571 		8.6306 		1.4992
v 15.9889 		8.5431 		2.6904
v 16.4524 		8.6306 		2.5146
v 17.1315 		8.5431 		3.8831
v 17.5576 		8.6306 		3.7012
v 15.3847 		8.294 		9.4762
v 11.1635 		8.294 		3.4203
v 17.6076 		8.294 		7.1655
v 17.3503 		8.294 		5.2453
v 16.7697 		8.294 		4.0364
v 15.7041 		8.294 		2.9241
v 11.7216 		8.6306 		0.9999
v 7.443 		8.6306 		0.9999
v 8.6604 		8.6306 		2.0583
v 7.443 		8.6306 		1.4475
v 5.7972 		-0.4992 		0
v 1.4928 		-0.4992 		0
v 5.7972 		-0.4992 		0.9999
v 1.4928 		-0.4992 		0.9999
v 5.7972 		-1.4313 		0.9999
v 1.4928 		-1.4313 		0.9999
v 1.4928 		-1.6471 		1.1315
v 5.7972 		-1.563 		1.0361
v 1.4928 		-1.563 		1.0361
v 5.7972 		-1.6471 		1.1315
v 1.4928 		-1.6531 		1.2517
v 5.7972 		-1.6531 		1.2517
v 1.4928 		-1.5789 		1.3531
v 5.7972 		-1.5789 		1.3531
v 5.7972 		0.538 		2.8998
v 1.4928 		0.538 		2.8998
v 5.7972 		7.0766 		2.8998
v 1.4928 		7.0766 		2.8998
v 5.7972 		9.1935 		1.3531
v 1.4928 		9.1935 		1.3531
v 1.4928 		9.1776 		1.0361
v 1.4928 		9.2617 		1.1315
v 1.4928 		8.1138 		0.9999
v 1.4928 		9.0459 		0.9999
v 1.4928 		9.2678 		1.2517
v 1.4928 		8.1138 		0
v 5.7972 		9.2678 		1.2517
v 5.7972 		9.2617 		1.1315
v 5.7972 		9.1776 		1.0361
v 5.7972 		9.0459 		0.9999
v 5.7972 		8.1138 		0.9999
v 5.7972 		8.1138 		0
v 3.6752 		-2.2813 		0
v 5.8635 		-3.5033 		0
v 10.3552 		-11.395 		0
v 9.3754 		-9.2753 		0
v 8.4899 		-7.0684 		0
v 21 		-8.4352 		0
v 15.5944 		-8.9527 		0
v 19.1249 		-8.0519 		0
v 15.9227 		-6.4853 		0
v 10.2546 		0.3621 		0
v 12.63 		-13.93 		0
v -11.8349 		-8.0519 		0
v -8.6327 		-6.4853 		0
v -8.3044 		-8.9527 		0
v -13.71 		-8.4352 		0
v 1.1697 		10.428 		0.0001
v 1.746 		10.6086 		0
v 7.4448 		-5.1665 		0
v -2.9646 		0.3621 		0
v -4.4316 		0.3621 		0
v -4.4316 		7.4822 		0
v -0.0912 		7.4822 		0
v 1.4379 		-3.4945 		0
v -0.1548 		-5.1665 		0
v -1.1999 		-7.0684 		0
v -2.0787 		-9.2583 		0
v -3.0476 		-11.3641 		0
v -5.34 		-13.93 		0
v -5.8203 		-3.679 		0
v 3.6449 		-2.2694 		0
v 0.7572 		10.0207 		0.0003
v 0.1808 		8.8049 		0.0002
v 6.1446 		10.4115 		0.0001
v 6.3256 		10.2606 		0.0002
v 6.9146 		9.3375 		0.0003
v 7.3812 		7.4822 		0
v 11.7216 		7.4822 		0
v 11.7216 		0.3621 		0
v 13.1103 		-3.679 		0
v 13.6251 		-8.8634 		0
v 13.4938 		-11.0369 		0
v 14.6843 		-14.9998 		0
v -6.3351 		-8.8634 		0
v -6.2038 		-11.0369 		0
v -7.3942 		-14.9998 		0
v 5.544 		10.6086 		0
v 13.7109 		7.9216 		0.2584
v 13.7613 		7.4822 		0.1896
v 11.7216 		8.2942 		0.2929
v 13.5487 		8.5431 		0.7841
v 13.6459 		8.294 		0.4691
v 8.9075 		8.294 		3.3007
v 8.3463 		8.5431 		2.3495
v 7.443 		8.3221 		2.2117
v 15.2137 		8.5431 		1.2953
v 15.6877 		8.5431 		10.5991
v 14.5207 		8.5431 		10.3872
v 19.7692 		7.4822 		7.1935
v 19.614 		7.4822 		5.4566
v 19.6523 		7.9216 		6.3245
v 19.5697 		7.9216 		7.9644
v 19.2796 		7.4822 		9.0302
v 18.7751 		7.9216 		9.6372
v 11.7448 		7.4822 		8.8249
v 11.5476 		7.9216 		8.0507
v 11.2407 		7.4822 		7.4011
v 7.443 		7.4822 		2.5843
v 8.6178 		7.4822 		3.484
v 7.443 		7.7458 		2.5525
v 19.2481 		8.294 		5.5058
v 19.2992 		8.294 		7.9271
v 10.518 		8.294 		5.3241
v 9.8111 		8.5431 		3.7669
v 11.3668 		8.5431 		5.8834
v 12.2114 		8.5431 		7.9164
v 8.689 		7.9216 		3.4321
v 10.2802 		7.9216 		5.4326
v 12.5397 		8.294 		9.4357
v 12.3086 		7.9216 		9.5527
v 13.2172 		8.294 		10.0798
v 13.0291 		7.9216 		10.2378
v 14.3523 		8.294 		10.6832
v 14.2398 		7.9216 		10.8811
v 15.6846 		8.294 		10.9233
v 15.6826 		7.9216 		11.1402
v 16.801 		8.294 		10.7506
v 16.9058 		7.9216 		10.951
v 17.7655 		8.294 		10.2616
v 17.9495 		7.9216 		10.4225
v 18.5424 		8.294 		9.522
v 16.9592 		8.5431 		2.3803
v 18.1929 		8.5431 		3.8523
v 18.8436 		8.5431 		5.561
v 18.8948 		8.5431 		7.8711
v 18.1944 		8.5431 		9.3498
v 17.4904 		8.5431 		10.0209
v 16.6443 		8.5431 		10.451
v 13.4984 		8.5431 		9.8435
v 12.8852 		8.5431 		9.2608
v 15.5905 		7.4822 		0.7543
v 15.5446 		7.9216 		0.8214
v 17.8917 		7.4822 		2.2918
v 17.4636 		7.9216 		2.0138
v 18.8922 		7.4822 		3.5758
v 18.8161 		7.9216 		3.6274
v 19.2442 		7.9216 		4.5355
v 18.0081 		7.4822 		10.4834
v 16.1316 		7.4822 		11.1944
v 14.2293 		7.4822 		10.9605
v 12.9603 		7.4822 		10.2913
v 10.0636 		7.4822 		5.2905
v 15.412 		8.294 		1.0113
v 17.2615 		8.294 		2.1607
v 18.5663 		8.294 		3.7176
v 7.35 		8.0282 		0.1203
v 7.3995 		8.429 		0.4341
v 7.443 		8.6188 		0.8571
v 9.4555 		0.3621 		4.4857
v 7.8191 		0.3621 		2.8057
v 7.4431 		0.3621 		2.5843
v 11.234 		0.3621 		7.3813
v 11.7335 		0.3621 		8.8009
v 12.9631 		0.3621 		10.2933
v 14.2002 		0.3621 		10.9507
v 16.133 		0.3621 		11.1941
v 18.0142 		0.3621 		10.4791
v 19.2796 		0.3621 		9.0301
v 19.7692 		0.3621 		7.1932
v 19.6138 		0.3621 		5.4558
v 18.8013 		0.3621 		3.4251
v 17.8277 		0.3621 		2.2292
v 16.1057 		0.3621 		1.0004
v 14.0267 		0.3621 		0.2457
v 7.2983 		9.8833 		0.7218
v 6.8864 		10.0332 		0.2465
v 6.8963 		10.6834 		0.5701
v 7.3817 		10.1325 		1.0535
v 6.0964 		11.0257 		0.3196
v 5.544 		11.1065 		0.2958
v 7.443 		9.786 		1.3181
v 7.4427 		9.8298 		1.3386
v 7.443 		-1.1512 		1.9999
v 7.443 		-0.6349 		1.9999
v 7.443 		-1.0644 		2.6383
v 7.4432 		-0.1509 		2.4591
v 7.443 		-0.704 		3.2367
v 7.443 		0.7001 		4.3785
v 7.443 		2.4811 		4.5414
v 7.443 		9.1241 		2.8511
v 7.443 		8.0904 		3.5469
v -4.4446 		7.4822 		8.8033
v -3.9536 		7.4822 		7.4098
v -4.534 		7.9216 		8.7745
v -11.9203 		7.9216 		4.4471
v -12.3236 		7.4822 		5.4548
v -12.3828 		7.9216 		7.1901
v -3.7533 		7.9216 		6.6527
v -2.7736 		7.4822 		5.2905
v -2.248 		7.9216 		4.4461
v -1.0926 		7.4822 		3.2525
v -1.1511 		7.9216 		3.1893
v -0.153 		7.4822 		2.5843
v -0.153 		7.9876 		2.4632
v -2.8335 		8.5431 		4.1652
v -1.671 		8.5431 		2.8369
v -0.153 		8.3819 		2.1423
v -9.3543 		8.5431 		10.451
v -8.3946 		8.294 		10.9233
v -8.3977 		8.5431 		10.5991
v -7.0623 		8.294 		10.6832
v -7.2307 		8.5431 		10.3872
v -5.9272 		8.294 		10.0798
v -6.2084 		8.5431 		9.8435
v -4.7916 		8.294 		8.6994
v -5.1768 		8.5431 		8.5872
v -4.0101 		8.294 		6.5758
v -4.3939 		8.5431 		6.461
v -2.4827 		8.294 		4.3335
v -1.3595 		8.294 		3.048
v -9.511 		8.294 		10.7506
v -10.2004 		8.5431 		10.0209
v -10.4755 		8.294 		10.2616
v -10.9044 		8.5431 		9.3498
v -11.2524 		8.294 		9.522
v -11.3804 		8.5431 		8.5601
v -11.7683 		8.294 		8.6664
v -11.6982 		8.5431 		7.1679
v -12.1084 		8.294 		7.1812
v -11.2659 		8.5431 		4.6073
v -11.658 		8.294 		4.5113
v -9.7787 		8.5431 		2.4767
v -10.0873 		8.294 		2.2628
v -8.3849 		8.5431 		1.5156
v -8.6112 		8.294 		1.245
v -6.5219 		8.5431 		0.8392
v -6.6347 		8.294 		0.5274
v -4.4316 		8.5432 		0.6173
v -4.4316 		8.2942 		0.2929
v -9.6158 		7.9216 		10.951
v -8.8416 		7.4822 		11.1944
v -8.3926 		7.9216 		11.1402
v -6.9362 		7.4822 		10.9594
v -6.9498 		7.9216 		10.8811
v -5.6732 		7.4822 		10.2935
v -5.7391 		7.9216 		10.2378
v -12.0277 		7.9216 		8.7375
v -11.9896 		7.4822 		9.0302
v -11.4851 		7.9216 		9.6372
v -10.712 		7.4822 		10.4878
v -10.6595 		7.9216 		10.4225
v -12.479 		7.4822 		7.1968
v -11.5105 		7.4822 		3.4239
v -10.2937 		7.9216 		2.1197
v -10.5347 		7.4822 		2.2264
v -8.7625 		7.9216 		1.064
v -8.8156 		7.4822 		1.0004
v -6.7102 		7.9216 		0.3189
v -6.7662 		7.4822 		0.2522
v -4.4316 		7.9217 		0.0761
v -0.0599 		8.024 		0.1184
v -0.1095 		8.429 		0.4341
v -0.153 		8.6188 		0.8571
v -0.153 		0.3621 		2.5843
v -1.3222 		0.3621 		3.4783
v -2.7782 		0.3621 		5.2966
v -3.944 		0.3621 		7.3813
v -4.4435 		0.3621 		8.8009
v -5.6731 		0.3621 		10.2933
v -6.9102 		0.3621 		10.9507
v -8.8409 		0.3621 		11.1944
v -10.7242 		0.3621 		10.4791
v -11.9903 		0.3621 		9.0287
v -12.4792 		0.3621 		7.1932
v -12.3238 		0.3621 		5.4558
v -11.6027 		0.3621 		3.5767
v -10.6046 		0.3621 		2.2942
v -8.3012 		0.3621 		0.7547
v -6.4437 		0.3621 		0.1844
v -0.0083 		9.9512 		0.7495
v -0.153 		9.1974 		1.082
v 1.0194 		10.3502 		0.0159
v 0.4036 		10.1903 		0.3099
v 0.3937 		10.6841 		0.5706
v 1.1936 		11.0266 		0.3203
v 1.746 		11.1075 		0.2965
v -0.1514 		9.868 		1.3015
v -0.1527 		9.8297 		1.3384
v -0.153 		1.744 		4.6624
v -0.153 		0.6897 		4.3616
v -0.153 		8.9571 		3.0633
v -0.1532 		-0.1387 		2.4654
v -0.153 		-1.1243 		2.4296
v -0.153 		-0.6349 		1.9999
v -0.153 		-1.1512 		1.9999
v -0.153 		8.3873 		3.4399
v -0.153 		-0.3555 		3.6048
v 11.824 		-0.0773 		8.7745
v 9.0087 		-0.6988 		2.8816
v 8.6941 		-0.4497 		3.0903
v 10.1235 		-0.6988 		4.1652
v 11.0433 		-0.0773 		6.6527
v 9.538 		-0.0773 		4.4461
v 8.4837 		-0.0773 		3.2299
v 16.9058 		-0.0773 		10.951
v 15.6826 		-0.0773 		11.1402
v 14.2398 		-0.0773 		10.8811
v 13.0291 		-0.0773 		10.2378
v 19.3177 		-0.0773 		8.7375
v 18.7751 		-0.0773 		9.6372
v 17.9495 		-0.0773 		10.4225
v 19.2103 		-0.0773 		4.4471
v 19.6728 		-0.0773 		7.1901
v 16.0525 		-0.0773 		1.064
v 17.5837 		-0.0773 		2.1197
v 14.0002 		-0.0773 		0.3189
v 11.7216 		-0.0774 		0.0761
v 18.5559 		-0.6988 		4.6073
v 18.9882 		-0.6988 		7.1679
v 18.6704 		-0.6988 		8.5601
v 18.1944 		-0.6988 		9.3498
v 17.4904 		-0.6988 		10.0209
v 16.6443 		-0.6988 		10.451
v 15.6877 		-0.6988 		10.5991
v 14.5207 		-0.6988 		10.3872
v 13.4984 		-0.6988 		9.8435
v 12.4668 		-0.6988 		8.5872
v 11.6839 		-0.6988 		6.461
v 11.7216 		-0.6989 		0.6173
v 13.8119 		-0.6988 		0.8392
v 15.6749 		-0.6988 		1.5156
v 17.0687 		-0.6988 		2.4767
v 16.801 		-0.4497 		10.7506
v 15.6846 		-0.4497 		10.9233
v 14.3523 		-0.4497 		10.6832
v 13.2172 		-0.4497 		10.0798
v 12.0816 		-0.4497 		8.6994
v 11.3001 		-0.4497 		6.5758
v 9.7727 		-0.4497 		4.3335
v 17.7655 		-0.4497 		10.2616
v 18.5424 		-0.4497 		9.522
v 19.0583 		-0.4497 		8.6664
v 19.3984 		-0.4497 		7.1812
v 18.948 		-0.4497 		4.5113
v 17.3773 		-0.4497 		2.2628
v 15.9012 		-0.4497 		1.245
v 13.9247 		-0.4497 		0.5274
v 11.7216 		-0.4499 		0.2929
v 10.7928 		-0.3536 		0.2177
v 11.0205 		-0.674 		0.5694
v 7.2879 		-1.8339 		1.9999
v 11.6896 		-11.2147 		1.9999
v 12.236 		-11.1945 		1.9999
v 12.3394 		-12.0762 		1.9999
v 12.591 		-7.6158 		1.9999
v 6.6147 		-2.5755 		1.9999
v 8.8546 		-5.0721 		1.9999
v -6.4209 		-0.0773 		0.2584
v -4.4316 		-0.4499 		0.2929
v -6.2587 		-0.6988 		0.7841
v -6.3559 		-0.4497 		0.4691
v -7.9237 		-0.6988 		1.2953
v -8.3977 		-0.6988 		10.5991
v -7.2307 		-0.6988 		10.3872
v -12.3623 		-0.0773 		6.3245
v -12.2797 		-0.0773 		7.9644
v -11.4851 		-0.0773 		9.6372
v -11.9581 		-0.4497 		5.5058
v -12.0092 		-0.4497 		7.9271
v -1.399 		-0.0773 		3.4321
v -1.6175 		-0.4497 		3.3007
v -1.9442 		-0.6988 		3.1044
v -3.5836 		-0.6988 		5.1619
v -2.9902 		-0.0773 		5.4326
v -4.2575 		-0.0773 		8.0507
v -9.6692 		-0.6988 		2.3803
v -10.9029 		-0.6988 		3.8523
v -11.5536 		-0.6988 		5.561
v -11.6048 		-0.6988 		7.8711
v -10.9044 		-0.6988 		9.3498
v -10.2004 		-0.6988 		10.0209
v -9.3543 		-0.6988 		10.451
v -6.2084 		-0.6988 		9.8435
v -5.5952 		-0.6988 		9.2608
v -8.2546 		-0.0773 		0.8214
v -10.1737 		-0.0773 		2.0138
v -11.5261 		-0.0773 		3.6274
v -11.9542 		-0.0773 		4.5355
v -10.6595 		-0.0773 		10.4225
v -9.6158 		-0.0773 		10.951
v -8.3926 		-0.0773 		11.1402
v -6.9498 		-0.0773 		10.8811
v -5.7391 		-0.0773 		10.2378
v -5.0186 		-0.0773 		9.5527
v -8.122 		-0.4497 		1.0113
v -9.9715 		-0.4497 		2.1607
v -11.2763 		-0.4497 		3.7176
v -3.228 		-0.4497 		5.3241
v -5.2497 		-0.4497 		9.4357
v -5.9272 		-0.4497 		10.0798
v -7.0623 		-0.4497 		10.6832
v -8.3946 		-0.4497 		10.9233
v -9.511 		-0.4497 		10.7506
v -10.4755 		-0.4497 		10.2616
v -11.2524 		-0.4497 		9.522
v -3.7305 		-0.674 		0.5694
v -3.5033 		-0.3543 		0.2182
v -5.301 		-7.6158 		1.9999
v 0.0664 		-1.9557 		1.9999
v 0.6753 		-2.5755 		1.9999
v -1.4669 		-4.9154 		1.9999
v -3.2822 		-8.9006 		1.9999
v -4.2309 		-10.9388 		1.9999
v -4.9567 		-11.3308 		1.9999
v -5.0494 		-12.0762 		1.9999
v 11.9482 		-12.3362 		1.9237
v 13.4598 		-13.7831 		1.8575
v 5.544 		-2.848 		1.709
v 4.9852 		-2.7878 		1.4195
v 6.8064 		-3.8592 		1.7068
v 7.108 		-3.6065 		1.9237
v 5.9424 		-2.8283 		1.8637
v 14.6843 		-14.9998 		0.9999
v 14.5442 		-14.8791 		1.3211
v 12.7923 		-14.041 		0.9999
v 14.294 		-14.6535 		1.5252
v 12.8869 		-13.9952 		1.3825
v 13.0482 		-13.7937 		1.7068
v 11.6284 		-12.5697 		1.7068
v 10.9381 		-10.8694 		1.9237
v 10.5696 		-11.0337 		1.7068
v 9.7994 		-9.3492 		1.7068
v 9.3945 		-7.221 		1.9237
v 9.0106 		-7.353 		1.7068
v 8.4311 		-5.2852 		1.9237
v 8.0721 		-5.4659 		1.7068
v 8.4899 		-7.0684 		0.9999
v 7.832 		-5.5868 		1.3825
v 7.4448 		-5.1665 		0.9999
v 6.6047 		-4.0282 		1.3825
v 6.343 		-3.9066 		0.9999
v 4.9229 		-2.8774 		0.9999
v 8.7538 		-7.4413 		1.3825
v 9.4517 		-9.4667 		0.9999
v 9.5414 		-9.4344 		1.3825
v 10.4518 		-11.56 		0.9999
v 10.3232 		-11.1436 		1.3825
v 11.1014 		-12.4987 		0.9999
v 11.4144 		-12.7258 		1.3825
v 12.7319 		-9.6612 		1.9237
v 13.8667 		-13.0829 		0.9999
v 13.7773 		-13.1179 		1.3825
v 13.4995 		-11.1226 		0.9999
v 13.4149 		-9.7101 		1.3825
v 13.6251 		-8.8634 		0.9999
v 13.5723 		-8.8013 		1.3121
v 13.5127 		-13.1847 		1.7068
v 13.2403 		-8.4039 		1.7752
v 13.1411 		-9.6905 		1.7068
v 13.4826 		-8.6949 		1.5022
v 15.204 		-8.2375 		1.9237
v 15.1862 		-8.8587 		1.3825
v 15.1829 		-8.9462 		0.9999
v 15.1933 		-8.6097 		1.7068
v 3.88 		-2.4882 		0.6765
v 3.3543 		-2.3885 		0.5699
v 3.3872 		-2.3745 		0.5421
v 3.7028 		-2.4751 		0.7001
v 4.3598 		-2.6303 		0.8239
v 4.3521 		-2.6467 		1.0214
v 4.3094 		-2.557 		0.3741
v 3.603 		-2.286 		0.2386
v -3.8109 		-12.4981 		0.9999
v -5.5469 		-14.0704 		0.9999
v -7.3942 		-14.9998 		0.9999
v 2.8169 		-2.6369 		0.9999
v 1.1387 		-3.7373 		0.9999
v -0.1542 		-5.1658 		0.9999
v -1.1995 		-7.0672 		0.9999
v -2.0907 		-9.2889 		0.9999
v -3.1109 		-11.4746 		0.9999
v 5.544 		2.3414 		6.1148
v 5.544 		4.3244 		5.6355
v 1.746 		3.4076 		5.8813
v 2.5035 		-2.7468 		1.2812
v 1.746 		-2.848 		1.709
v 1.746 		-2.8188 		2.6996
v 5.544 		-2.7054 		3.0944
v 1.746 		-2.3805 		3.7362
v 5.544 		-1.6157 		4.6275
v 1.746 		-1.6208 		4.6226
v 1.746 		0.1526 		5.8287
v 5.544 		-0.2013 		5.6567
v 1.746 		1.6169 		6.1617
v 1.746 		6.1857 		5.3349
v 5.544 		6.0598 		5.3463
v 1.746 		8.5238 		5.0023
v 5.544 		7.8307 		5.156
v 5.544 		8.6626 		4.9616
v 1.746 		9.7876 		4.4415
v 5.544 		10.6053 		3.6168
v 1.746 		10.9236 		3.0776
v 1.746 		11.4792 		1.7796
v 5.544 		11.3915 		2.0398
v 1.746 		11.5757 		1.2382
v 5.544 		11.5758 		1.2344
v 1.7461 		11.5629 		1.0263
v 5.544 		11.5104 		0.8203
v 1.746 		11.4169 		0.6312
v 5.5439 		11.2824 		0.4571
v 7.4414 		9.8906 		1.3396
v 7.2983 		10.3794 		1.7552
v 6.8864 		-2.2244 		2.9607
v 7.2983 		-1.6922 		2.8128
v 7.2983 		7.1478 		4.3153
v 7.2983 		4.0308 		4.7454
v 6.0963 		11.5006 		1.2713
v 6.2706 		-2.5803 		3.0596
v 6.2706 		-1.4542 		4.6103
v 7.2983 		-1.2388 		3.5721
v 7.2983 		1.2669 		5.1987
v 7.2983 		0.3552 		4.8676
v 6.2706 		11.2666 		2.0047
v 6.8864 		10.911 		1.9047
v 6.8956 		11.0567 		1.3201
v 7.2983 		9.8423 		2.901
v 6.8864 		10.3417 		3.119
v 7.2983 		9.2212 		3.6484
v 7.2983 		8.3093 		4.0882
v 7.2983 		2.1688 		5.201
v 6.2706 		9.2567 		4.6082
v 6.2706 		10.6757 		3.2647
v 6.2706 		7.2717 		5.1197
v 6.2706 		4.2881 		5.5256
v 6.2706 		2.3201 		6.002
v 6.2706 		-0.1326 		5.5593
v 6.8864 		7.2221 		4.7973
v 6.8864 		9.0768 		4.323
v 6.8864 		4.185 		5.2129
v 6.8864 		2.2595 		5.681
v 6.8864 		0.0629 		5.2821
v 6.8864 		-1.1835 		4.3861
v 0.4405 		-3.3636 		1.9237
v 1.1233 		-2.7769 		1.9332
v 0.7296 		-3.6279 		1.7068
v -0.6918 		-5.3212 		1.7068
v -1.0474 		-5.135 		1.9237
v -1.6509 		-7.1878 		1.7068
v -2.0337 		-7.0533 		1.9237
v -2.44 		-9.175 		1.7068
v -3.2385 		-10.9572 		1.7068
v -3.6083 		-10.7954 		1.9237
v -4.3484 		-12.5809 		1.7068
v -4.6677 		-12.3469 		1.9237
v -5.7646 		-13.7979 		1.7068
v -6.4665 		-14.1172 		1.7706
v -5.6036 		-13.9996 		1.3825
v -7.0223 		-14.6705 		1.5135
v -4.1348 		-12.7375 		1.3825
v -2.9911 		-11.0654 		1.3825
v -2.1816 		-9.2593 		1.3825
v -1.3948 		-7.2778 		1.3825
v -0.454 		-5.4457 		1.3825
v 0.923 		-3.8046 		1.3825
v -5.7475 		-13.0109 		1.9237
v -6.1458 		-12.9206 		1.7068
v -6.504 		-12.8323 		0.9999
v -6.4122 		-12.8602 		1.3825
v -6.2187 		-11.2399 		0.9999
v -6.1227 		-11.2487 		1.3825
v -6.3351 		-8.8634 		0.9999
v -6.253 		-8.7659 		1.3881
v -5.8489 		-11.268 		1.7068
v -6.0187 		-8.4863 		1.7164
v -5.4396 		-11.2968 		1.9237
v -5.6325 		-8.0186 		1.9463
v -9.4285 		-8.6006 		1.7068
v -9.4393 		-8.8495 		1.3825
v -9.4124 		-8.2285 		1.9237
v -7.8926 		-8.9462 		0.9999
v -0.0083 		10.45 		1.5465
v 1.0194 		-0.4781 		5.358
v 1.0194 		-1.9207 		4.1344
v 1.0194 		0.9735 		5.9732
v 1.0194 		2.6125 		5.9526
v 1.0194 		4.2881 		5.5256
v 1.0194 		7.2781 		5.119
v 1.0194 		9.1197 		4.6705
v 1.0194 		10.4131 		3.6703
v 1.0194 		11.2399 		2.0749
v -0.0083 		-1.6514 		2.9157
v -0.0083 		6.0781 		4.4136
v -0.0083 		8.1989 		4.1205
v -0.0083 		9.7986 		2.9754
v 0.4036 		-2.3221 		2.6205
v 0.4036 		-1.6227 		3.9381
v -0.0083 		-0.8396 		3.9942
v 0.4036 		0.0525 		5.2765
v -0.0083 		0.6294 		5.0009
v 0.4036 		1.7723 		5.7224
v -0.0083 		1.7593 		5.2361
v 0.4036 		10.8858 		1.9713
v 0.4036 		3.2589 		5.4612
v 0.4036 		6.1346 		4.8975
v 0.4036 		8.3696 		4.5836
v 0.4036 		10.0989 		3.4941
v 1.0194 		-2.6896 		2.679
v 1.1938 		11.5004 		1.2749
v 0.7234 		11.3008 		1.3042
v 0.3238 		10.9872 		1.3264
v 6.4921 		11.2514 		0.7997
v 7.1397 		10.722 		0.9974
v 0.7978 		11.2523 		0.8016
v 0.1503 		10.7226 		0.9987
# 974 vertices

g group_0_15277357

usemtl color_15277357
s 0

f 1 	2 	3
f 4 	3 	2
f 3 	5 	1
f 7 	9 	6
f 8 	6 	9
f 8 	9 	10
f 10 	9 	11
f 11 	9 	12
f 12 	9 	16
f 6 	8 	13
f 13 	8 	1
f 13 	1 	14
f 14 	1 	5
f 8 	10 	1
f 1 	10 	15
f 1 	15 	2
f 17 	16 	9
f 9 	7 	17
f 18 	17 	7
f 19 	16 	20
f 20 	16 	17
f 20 	17 	21
f 21 	17 	22
f 22 	17 	18
f 22 	18 	23
f 24 	3 	4
f 24 	25 	3
f 5 	3 	25
f 5 	25 	26
f 27 	28 	29
f 29 	30 	27
f 30 	29 	32
f 32 	31 	30
f 33 	34 	35
f 34 	33 	36
f 36 	37 	34
f 38 	37 	36
f 35 	39 	40
f 41 	26 	25
f 41 	42 	26
f 43 	42 	41
f 44 	42 	43
f 45 	44 	43
f 45 	46 	44
f 47 	48 	49
f 49 	48 	50
f 49 	50 	51
f 51 	50 	52
f 51 	52 	53
f 53 	52 	54
f 53 	54 	55
f 55 	54 	56
f 55 	56 	57
f 57 	56 	22
f 57 	22 	23
f 48 	47 	58
f 58 	47 	59
f 58 	59 	60
f 61 	46 	59
f 60 	59 	46
f 46 	61 	62
f 46 	62 	44
f 44 	62 	63
f 44 	63 	42
f 64 	26 	63
f 42 	63 	26
f 26 	64 	14
f 26 	14 	5
f 4 	65 	24
f 24 	65 	28
f 24 	28 	27
f 33 	35 	67
f 67 	35 	66
f 67 	66 	68
f 67 	68 	69
f 70 	69 	68
f 31 	32 	70
f 69 	70 	32
f 37 	38 	71
f 71 	38 	72
f 71 	72 	73
f 73 	72 	74
f 73 	74 	75
f 75 	74 	76
f 75 	76 	77
f 77 	76 	19
f 77 	19 	20
f 35 	40 	66
f 66 	40 	78
f 66 	78 	68
f 79 	70 	78
f 68 	78 	70
f 45 	31 	79
f 70 	79 	31
f 43 	30 	45
f 31 	45 	30
f 41 	27 	43
f 30 	43 	27
f 27 	41 	25
f 27 	25 	24
f 35 	34 	39
f 39 	34 	37
f 39 	37 	80
f 80 	37 	71
f 80 	71 	81
f 73 	82 	71
f 81 	71 	82
f 75 	83 	73
f 82 	73 	83
f 77 	84 	75
f 83 	75 	84
f 84 	77 	20
f 84 	20 	21
f 45 	79 	46
f 46 	79 	78
f 46 	78 	60
f 78 	40 	60
f 60 	40 	39
f 60 	39 	58
f 58 	39 	80
f 58 	80 	48
f 48 	80 	81
f 48 	81 	50
f 82 	52 	81
f 50 	81 	52
f 83 	54 	82
f 52 	82 	54
f 84 	56 	83
f 54 	83 	56
f 56 	84 	21
f 56 	21 	22
f 23 	18 	85
f 85 	18 	98
f 63 	86 	64
f 87 	86 	63
f 86 	88 	64
f 64 	88 	89
f 64 	89 	14
f 63 	62 	87
f 87 	62 	61
f 87 	61 	90
f 59 	91 	61
f 90 	61 	91
f 91 	59 	47
f 91 	47 	92
f 49 	93 	47
f 92 	47 	93
f 51 	94 	49
f 93 	49 	94
f 53 	95 	51
f 94 	51 	95
f 95 	53 	55
f 95 	55 	96
f 96 	55 	57
f 96 	57 	97
f 97 	57 	23
f 97 	23 	85
f 18 	7 	98
f 99 	14 	89
f 14 	99 	13
f 13 	99 	100
f 13 	100 	6
f 6 	100 	98
f 6 	98 	7
f 4 	2 	101
f 2 	102 	101
f 102 	2 	15
f 103 	12 	16
f 19 	104 	16
f 103 	16 	104
f 105 	106 	107
f 108 	109 	110
f 111 	112 	108
f 102 	15 	113
f 113 	15 	10
f 113 	10 	114
f 114 	10 	11
f 114 	11 	115
f 115 	11 	12
f 115 	12 	116
f 116 	12 	103
f 116 	103 	117
f 118 	105 	109
f 105 	118 	106
f 106 	118 	119
f 106 	119 	120
f 120 	119 	116
f 120 	116 	117
f 111 	114 	112
f 115 	112 	114
f 111 	121 	114
f 114 	121 	113
f 108 	110 	111
f 111 	110 	122
f 111 	122 	121
f 109 	108 	118
f 118 	108 	112
f 118 	112 	119
f 119 	112 	115
f 119 	115 	116
f 98 	100 	123
f 123 	100 	124
f 123 	124 	125
f 125 	124 	126
f 99 	89 	127
f 127 	89 	128
f 127 	128 	129
f 129 	130 	127
f 127 	130 	131
f 100 	99 	124
f 124 	99 	127
f 124 	127 	126
f 126 	127 	131
f 85 	98 	132
f 132 	98 	123
f 123 	125 	132
f 133 	132 	125
f 85 	134 	97
f 85 	132 	134
f 133 	135 	132
f 132 	136 	134
f 137 	138 	139
f 137 	139 	140
f 139 	141 	140
f 142 	143 	144
f 144 	143 	145
f 144 	145 	146
f 145 	147 	146
f 146 	147 	148
f 149 	150 	151
f 151 	150 	152
f 152 	150 	153
f 152 	153 	154
f 153 	155 	154
f 156 	154 	155
f 156 	155 	157
f 132 	135 	136
f 157 	155 	158
f 158 	159 	157
f 89 	88 	128
f 128 	88 	160
f 128 	160 	129
f 129 	160 	161
f 129 	161 	162
f 130 	129 	163
f 163 	129 	162
f 163 	162 	164
f 164 	162 	148
f 164 	148 	147
f 165 	166 	167
f 167 	166 	135
f 167 	135 	133
f 138 	137 	168
f 168 	137 	166
f 168 	166 	165
f 140 	141 	169
f 169 	141 	170
f 169 	170 	171
f 171 	170 	158
f 158 	170 	172
f 159 	158 	172
f 159 	172 	142
f 142 	172 	173
f 142 	173 	143
f 97 	134 	96
f 96 	134 	174
f 96 	174 	95
f 95 	174 	175
f 95 	175 	151
f 160 	88 	176
f 176 	88 	86
f 176 	86 	177
f 177 	86 	87
f 87 	90 	177
f 178 	177 	90
f 90 	91 	178
f 156 	178 	91
f 156 	91 	154
f 154 	91 	92
f 154 	92 	152
f 152 	92 	93
f 152 	93 	151
f 151 	93 	94
f 151 	94 	95
f 136 	179 	134
f 174 	134 	179
f 174 	179 	175
f 175 	179 	149
f 175 	149 	151
f 178 	156 	180
f 180 	156 	157
f 180 	157 	159
f 160 	176 	161
f 181 	161 	176
f 176 	177 	181
f 182 	181 	177
f 182 	177 	183
f 183 	177 	178
f 183 	178 	180
f 135 	166 	136
f 179 	136 	166
f 166 	137 	179
f 149 	179 	137
f 137 	140 	149
f 150 	149 	140
f 150 	140 	153
f 153 	140 	169
f 153 	169 	155
f 155 	169 	171
f 155 	171 	158
f 161 	181 	162
f 148 	162 	181
f 148 	181 	146
f 146 	181 	182
f 146 	182 	144
f 144 	182 	183
f 183 	180 	144
f 142 	144 	180
f 142 	180 	159
f 184 	133 	125
f 184 	125 	126
f 184 	126 	185
f 126 	131 	185
f 186 	185 	131
f 186 	131 	130
f 187 	188 	189
f 187 	190 	188
f 188 	191 	189
f 192 	189 	191
f 191 	188 	193
f 194 	195 	196
f 196 	195 	197
f 196 	197 	190
f 190 	197 	198
f 190 	198 	188
f 199 	200 	197
f 198 	197 	200
f 200 	201 	198
f 188 	198 	201
f 188 	201 	193
f 193 	201 	202
f 203 	204 	195
f 197 	195 	204
f 197 	204 	199
f 199 	204 	205
f 205 	206 	207
f 205 	204 	206
f 203 	208 	204
f 204 	209 	206
f 210 	211 	212
f 210 	212 	213
f 212 	214 	213
f 215 	216 	217
f 217 	216 	218
f 217 	218 	219
f 218 	220 	219
f 219 	220 	221
f 222 	223 	224
f 225 	224 	223
f 223 	226 	225
f 227 	225 	226
f 226 	228 	227
f 229 	227 	228
f 229 	228 	230
f 204 	208 	209
f 230 	228 	231
f 231 	232 	230
f 202 	233 	193
f 193 	233 	234
f 193 	234 	191
f 191 	234 	235
f 191 	235 	236
f 192 	191 	237
f 237 	191 	236
f 237 	236 	238
f 238 	236 	221
f 238 	221 	220
f 239 	240 	241
f 241 	240 	208
f 241 	208 	203
f 211 	210 	242
f 242 	210 	240
f 242 	240 	239
f 213 	214 	243
f 243 	214 	244
f 243 	244 	245
f 245 	244 	231
f 231 	244 	246
f 232 	231 	246
f 232 	246 	215
f 215 	246 	247
f 215 	247 	216
f 207 	206 	248
f 248 	206 	249
f 248 	249 	250
f 250 	249 	251
f 250 	251 	224
f 234 	233 	252
f 252 	233 	253
f 252 	253 	254
f 254 	253 	255
f 255 	257 	254
f 256 	254 	257
f 257 	258 	256
f 229 	256 	258
f 229 	258 	227
f 227 	258 	259
f 227 	259 	225
f 225 	259 	260
f 225 	260 	224
f 224 	260 	261
f 224 	261 	250
f 209 	262 	206
f 249 	206 	262
f 249 	262 	251
f 251 	262 	222
f 251 	222 	224
f 256 	229 	263
f 263 	229 	230
f 263 	230 	232
f 234 	252 	235
f 264 	235 	252
f 252 	254 	264
f 265 	264 	254
f 265 	254 	266
f 266 	254 	256
f 266 	256 	263
f 208 	240 	209
f 262 	209 	240
f 240 	210 	262
f 222 	262 	210
f 210 	213 	222
f 223 	222 	213
f 223 	213 	226
f 226 	213 	243
f 226 	243 	228
f 228 	243 	245
f 228 	245 	231
f 235 	264 	236
f 221 	236 	264
f 221 	264 	219
f 219 	264 	265
f 219 	265 	217
f 217 	265 	266
f 266 	263 	217
f 215 	217 	263
f 215 	263 	232
f 199 	205 	280
f 280 	205 	267
f 268 	269 	253
f 255 	253 	269
f 202 	270 	233
f 233 	270 	268
f 233 	268 	253
f 267 	205 	271
f 271 	205 	207
f 271 	207 	272
f 272 	207 	248
f 272 	248 	273
f 273 	248 	250
f 273 	250 	274
f 274 	250 	261
f 261 	260 	274
f 275 	274 	260
f 260 	259 	275
f 276 	275 	259
f 276 	259 	277
f 277 	259 	258
f 258 	257 	277
f 278 	277 	257
f 278 	257 	279
f 279 	257 	255
f 279 	255 	269
f 281 	199 	280
f 199 	281 	200
f 200 	281 	282
f 200 	282 	201
f 201 	282 	270
f 201 	270 	202
f 283 	203 	195
f 283 	195 	194
f 189 	192 	284
f 189 	284 	285
f 189 	285 	187
f 286 	287 	288
f 286 	289 	287
f 290 	291 	292
f 293 	291 	294
f 287 	295 	296
f 297 	283 	298
f 298 	283 	194
f 298 	194 	299
f 299 	194 	196
f 299 	196 	300
f 300 	196 	190
f 300 	190 	301
f 301 	190 	187
f 301 	187 	285
f 292 	291 	302
f 302 	291 	293
f 302 	293 	289
f 289 	293 	295
f 289 	295 	287
f 297 	298 	294
f 294 	298 	303
f 294 	303 	293
f 299 	300 	296
f 287 	296 	300
f 300 	301 	287
f 288 	287 	301
f 295 	293 	296
f 296 	293 	303
f 296 	303 	299
f 299 	303 	298
f 270 	282 	304
f 304 	282 	305
f 304 	305 	306
f 306 	305 	307
f 307 	305 	308
f 307 	308 	309
f 280 	311 	281
f 310 	281 	311
f 311 	313 	310
f 312 	310 	313
f 281 	310 	282
f 305 	282 	310
f 310 	312 	305
f 308 	305 	312
f 267 	314 	280
f 311 	280 	314
f 315 	313 	314
f 311 	314 	313
f 316 	314 	267
f 314 	317 	315
f 318 	319 	320
f 319 	318 	322
f 322 	321 	319
f 323 	324 	325
f 324 	323 	326
f 326 	327 	324
f 328 	327 	326
f 328 	329 	327
f 325 	330 	331
f 332 	317 	314
f 333 	334 	335
f 334 	333 	336
f 336 	337 	334
f 337 	336 	338
f 338 	339 	337
f 331 	340 	341
f 267 	271 	316
f 316 	271 	272
f 316 	272 	342
f 342 	272 	273
f 342 	273 	343
f 343 	273 	274
f 343 	274 	344
f 344 	274 	275
f 344 	275 	345
f 345 	275 	276
f 345 	276 	346
f 346 	276 	277
f 346 	277 	340
f 278 	339 	277
f 340 	277 	339
f 339 	278 	279
f 339 	279 	337
f 337 	279 	269
f 337 	269 	334
f 268 	335 	269
f 334 	269 	335
f 335 	268 	270
f 335 	270 	304
f 318 	320 	347
f 347 	320 	348
f 347 	348 	349
f 349 	348 	307
f 349 	307 	309
f 323 	325 	351
f 351 	325 	350
f 351 	350 	352
f 351 	352 	353
f 354 	353 	352
f 321 	322 	354
f 353 	354 	322
f 315 	317 	355
f 355 	317 	356
f 355 	356 	357
f 357 	356 	358
f 357 	358 	359
f 359 	358 	329
f 359 	329 	328
f 325 	331 	350
f 350 	331 	341
f 350 	341 	352
f 360 	354 	341
f 352 	341 	354
f 338 	321 	360
f 354 	360 	321
f 336 	319 	338
f 321 	338 	319
f 333 	320 	336
f 319 	336 	320
f 320 	333 	361
f 320 	361 	348
f 306 	307 	361
f 348 	361 	307
f 325 	324 	330
f 330 	324 	327
f 330 	327 	362
f 362 	327 	329
f 362 	329 	363
f 358 	364 	329
f 363 	329 	364
f 356 	365 	358
f 364 	358 	365
f 317 	332 	356
f 365 	356 	332
f 333 	335 	361
f 361 	335 	304
f 361 	304 	306
f 338 	360 	339
f 339 	360 	341
f 339 	341 	340
f 314 	316 	332
f 342 	365 	316
f 332 	316 	365
f 343 	364 	342
f 365 	342 	364
f 344 	363 	343
f 364 	343 	363
f 363 	344 	345
f 363 	345 	362
f 362 	345 	346
f 362 	346 	330
f 330 	346 	340
f 330 	340 	331
f 366 	313 	315
f 366 	367 	313
f 309 	308 	368
f 308 	312 	368
f 312 	367 	368
f 369 	368 	367
f 367 	312 	313
f 370 	371 	372
f 372 	371 	373
f 374 	372 	375
f 375 	372 	373
f 376 	377 	378
f 378 	377 	374
f 378 	374 	375
f 377 	376 	379
f 379 	376 	380
f 379 	380 	381
f 381 	380 	382
f 381 	382 	383
f 383 	382 	384
f 384 	382 	385
f 384 	385 	386
f 387 	386 	385
f 388 	386 	389
f 389 	386 	387
f 393 	390 	389
f 375 	382 	378
f 385 	382 	373
f 392 	387 	373
f 390 	391 	389
f 394 	389 	391
f 385 	373 	387
f 375 	373 	382
f 389 	387 	392
f 380 	376 	382
f 392 	393 	389
f 378 	382 	376
f 371 	395 	373
f 373 	395 	392
f 391 	396 	394
f 394 	396 	388
f 394 	388 	389
f 396 	391 	397
f 397 	391 	390
f 397 	390 	398
f 398 	390 	393
f 398 	393 	399
f 400 	388 	399
f 377 	379 	383
f 381 	383 	379
f 374 	377 	383
f 372 	374 	383
f 383 	384 	372
f 388 	400 	386
f 396 	397 	388
f 386 	372 	384
f 398 	388 	397
f 399 	388 	398
f 372 	386 	400
f 370 	372 	401
f 401 	372 	400
f 401 	400 	395
f 395 	400 	392
f 400 	399 	392
f 392 	399 	393
f 402 	370 	403
f 406 	419 	440
f 407 	408 	409
f 408 	410 	409
f 405 	406 	441
f 413 	414 	415
f 416 	413 	415
f 395 	417 	418
f 440 	441 	406
f 411 	440 	419
f 419 	403 	411
f 370 	411 	403
f 420 	421 	422
f 420 	422 	423
f 420 	423 	371
f 420 	371 	424
f 420 	424 	425
f 426 	430 	425
f 427 	444 	426
f 428 	444 	427
f 429 	445 	428
f 420 	425 	430
f 424 	371 	431
f 431 	371 	370
f 431 	370 	402
f 371 	423 	395
f 423 	433 	395
f 433 	432 	395
f 417 	395 	432
f 434 	435 	401
f 401 	435 	436
f 436 	437 	401
f 370 	401 	437
f 370 	437 	411
f 411 	437 	438
f 411 	438 	439
f 408 	441 	410
f 440 	410 	441
f 412 	404 	442
f 404 	405 	441
f 441 	442 	404
f 412 	442 	443
f 415 	414 	444
f 444 	414 	430
f 430 	426 	444
f 444 	428 	445
f 445 	429 	446
f 395 	418 	401
f 401 	418 	447
f 401 	447 	434
f 438 	448 	449
f 438 	450 	448
f 366 	451 	450
f 366 	315 	451
f 450 	452 	448
f 453 	454 	455
f 315 	355 	451
f 451 	355 	456
f 457 	353 	458
f 353 	322 	458
f 459 	460 	461
f 461 	462 	459
f 463 	459 	462
f 462 	464 	463
f 465 	466 	467
f 468 	469 	470
f 461 	471 	472
f 450 	451 	452
f 473 	474 	453
f 454 	453 	474
f 369 	455 	368
f 368 	455 	454
f 368 	454 	309
f 309 	454 	474
f 309 	474 	349
f 349 	474 	475
f 349 	475 	347
f 347 	475 	476
f 347 	476 	318
f 455 	470 	453
f 453 	470 	477
f 453 	477 	473
f 473 	477 	478
f 473 	478 	479
f 479 	478 	466
f 479 	466 	480
f 480 	482 	479
f 481 	479 	482
f 481 	482 	483
f 483 	482 	484
f 483 	484 	485
f 485 	484 	486
f 486 	488 	485
f 487 	485 	488
f 488 	490 	487
f 489 	487 	490
f 490 	464 	489
f 491 	489 	464
f 464 	462 	491
f 472 	491 	462
f 472 	462 	461
f 456 	355 	492
f 492 	355 	357
f 492 	357 	493
f 493 	357 	359
f 359 	328 	493
f 494 	493 	328
f 494 	328 	495
f 495 	328 	326
f 326 	323 	495
f 496 	495 	323
f 323 	351 	496
f 497 	496 	351
f 497 	351 	498
f 498 	351 	457
f 457 	351 	353
f 458 	322 	499
f 499 	322 	500
f 500 	322 	318
f 500 	318 	476
f 448 	502 	449
f 501 	449 	502
f 501 	502 	503
f 503 	502 	504
f 503 	504 	505
f 505 	504 	506
f 505 	506 	460
f 460 	506 	507
f 460 	507 	461
f 463 	464 	508
f 508 	464 	490
f 508 	490 	509
f 509 	490 	488
f 509 	488 	486
f 509 	486 	510
f 510 	486 	484
f 510 	484 	511
f 511 	484 	482
f 511 	482 	465
f 465 	482 	480
f 465 	480 	466
f 467 	466 	512
f 512 	466 	478
f 478 	477 	512
f 469 	512 	477
f 469 	477 	470
f 452 	513 	448
f 502 	448 	513
f 502 	513 	504
f 504 	513 	514
f 504 	514 	506
f 506 	514 	515
f 506 	515 	507
f 507 	515 	471
f 507 	471 	461
f 451 	456 	452
f 513 	452 	456
f 513 	456 	514
f 514 	456 	492
f 514 	492 	515
f 515 	492 	493
f 515 	493 	471
f 471 	493 	494
f 494 	495 	471
f 472 	471 	495
f 495 	496 	472
f 491 	472 	496
f 496 	497 	491
f 489 	491 	497
f 497 	498 	489
f 487 	489 	498
f 498 	457 	487
f 485 	487 	457
f 485 	457 	483
f 483 	457 	458
f 483 	458 	481
f 481 	458 	499
f 499 	500 	481
f 479 	481 	500
f 479 	500 	476
f 479 	476 	473
f 473 	476 	475
f 473 	475 	474
f 450 	438 	437
f 450 	437 	516
f 450 	516 	517
f 450 	517 	518
f 450 	518 	367
f 450 	367 	366
f 519 	469 	520
f 520 	469 	468
f 520 	468 	521
f 469 	519 	512
f 512 	519 	522
f 512 	522 	467
f 467 	522 	523
f 467 	523 	465
f 465 	523 	524
f 465 	524 	511
f 511 	524 	525
f 511 	525 	510
f 510 	525 	526
f 510 	526 	509
f 527 	508 	526
f 509 	526 	508
f 528 	463 	527
f 508 	527 	463
f 529 	459 	528
f 463 	528 	459
f 530 	460 	529
f 459 	529 	460
f 530 	672 	460
f 460 	531 	505
f 505 	531 	532
f 505 	532 	503
f 503 	532 	533
f 503 	533 	501
f 501 	533 	534
f 501 	534 	449
f 449 	534 	439
f 449 	439 	438
f 517 	535 	518
f 536 	535 	436
f 435 	536 	436
f 436 	516 	437
f 535 	516 	436
f 535 	537 	538
f 517 	516 	535
f 535 	536 	537
f 539 	537 	536
f 539 	536 	435
f 539 	435 	434
f 539 	434 	447
f 539 	447 	540
f 518 	535 	541
f 541 	535 	538
f 541 	538 	542
f 367 	541 	369
f 367 	518 	541
f 542 	455 	541
f 543 	544 	545
f 545 	544 	546
f 549 	548 	521
f 545 	546 	547
f 547 	521 	548
f 468 	470 	551
f 551 	549 	468
f 521 	468 	549
f 546 	521 	547
f 369 	541 	455
f 455 	542 	550
f 470 	455 	550
f 550 	551 	470
f 552 	553 	554
f 555 	556 	557
f 554 	553 	558
f 558 	553 	559
f 558 	559 	560
f 560 	559 	561
f 560 	561 	562
f 562 	561 	563
f 562 	563 	564
f 163 	565 	130
f 130 	565 	566
f 130 	566 	186
f 186 	566 	567
f 186 	567 	185
f 568 	581 	570
f 570 	569 	571
f 570 	571 	572
f 572 	571 	573
f 572 	573 	574
f 574 	573 	575
f 574 	575 	576
f 576 	575 	577
f 576 	577 	578
f 579 	565 	577
f 578 	577 	565
f 565 	579 	580
f 565 	580 	566
f 566 	580 	564
f 566 	564 	567
f 569 	570 	581
f 582 	583 	568
f 581 	568 	583
f 584 	585 	582
f 583 	582 	585
f 586 	587 	584
f 585 	584 	587
f 588 	589 	586
f 587 	586 	589
f 590 	591 	588
f 589 	588 	591
f 591 	590 	592
f 591 	592 	593
f 593 	592 	594
f 593 	594 	595
f 596 	597 	594
f 595 	594 	597
f 598 	599 	596
f 597 	596 	599
f 600 	601 	602
f 602 	601 	603
f 602 	603 	604
f 604 	603 	605
f 604 	605 	606
f 606 	605 	552
f 606 	552 	554
f 607 	608 	609
f 609 	608 	610
f 609 	610 	611
f 611 	610 	601
f 611 	601 	600
f 556 	612 	557
f 557 	612 	608
f 557 	608 	607
f 556 	555 	613
f 613 	555 	614
f 613 	614 	615
f 615 	614 	616
f 615 	616 	617
f 618 	619 	616
f 617 	616 	619
f 620 	422 	618
f 619 	618 	422
f 138 	590 	139
f 139 	590 	588
f 139 	588 	141
f 586 	170 	588
f 141 	588 	170
f 584 	170 	586
f 582 	172 	584
f 170 	584 	172
f 568 	172 	582
f 570 	173 	568
f 172 	568 	173
f 173 	570 	572
f 173 	572 	143
f 143 	572 	574
f 143 	574 	145
f 145 	574 	576
f 145 	576 	147
f 578 	164 	576
f 147 	576 	164
f 164 	578 	565
f 164 	565 	163
f 133 	598 	596
f 133 	596 	167
f 167 	596 	594
f 167 	594 	165
f 165 	594 	592
f 165 	592 	168
f 168 	592 	590
f 168 	590 	138
f 564 	580 	562
f 562 	580 	579
f 562 	579 	560
f 577 	558 	579
f 560 	579 	558
f 558 	577 	575
f 558 	575 	554
f 554 	575 	573
f 554 	573 	606
f 606 	573 	571
f 606 	571 	604
f 604 	571 	569
f 604 	569 	602
f 581 	600 	569
f 602 	569 	600
f 583 	611 	581
f 600 	581 	611
f 585 	609 	583
f 611 	583 	609
f 587 	607 	585
f 609 	585 	607
f 589 	557 	587
f 607 	587 	557
f 591 	555 	589
f 557 	589 	555
f 555 	591 	593
f 555 	593 	614
f 614 	593 	595
f 614 	595 	616
f 597 	618 	595
f 616 	595 	618
f 599 	620 	597
f 618 	597 	620
f 423 	422 	621
f 621 	422 	620
f 621 	620 	622
f 622 	620 	599
f 622 	599 	623
f 623 	599 	598
f 623 	598 	184
f 184 	598 	133
f 624 	563 	625
f 625 	563 	561
f 625 	561 	626
f 626 	561 	559
f 626 	559 	627
f 627 	559 	553
f 627 	553 	628
f 628 	553 	552
f 628 	552 	629
f 629 	552 	605
f 629 	605 	630
f 630 	605 	603
f 630 	603 	631
f 631 	603 	601
f 601 	610 	631
f 632 	631 	610
f 610 	608 	632
f 633 	632 	608
f 608 	612 	633
f 634 	633 	612
f 612 	556 	634
f 635 	634 	556
f 635 	556 	636
f 636 	556 	613
f 636 	613 	637
f 637 	613 	615
f 637 	615 	638
f 638 	615 	617
f 638 	617 	639
f 639 	617 	619
f 639 	619 	421
f 421 	619 	422
f 423 	621 	433
f 640 	622 	641
f 642 	417 	432
f 623 	641 	622
f 432 	643 	642
f 642 	643 	644
f 642 	644 	417
f 417 	644 	645
f 417 	645 	418
f 418 	645 	646
f 644 	643 	647
f 647 	643 	640
f 647 	640 	648
f 648 	640 	641
f 643 	432 	640
f 640 	432 	433
f 640 	433 	622
f 622 	433 	621
f 657 	650 	624
f 563 	624 	649
f 563 	656 	564
f 624 	652 	657
f 657 	652 	653
f 652 	654 	653
f 653 	654 	655
f 651 	564 	656
f 649 	624 	650
f 656 	563 	649
f 185 	567 	648
f 564 	651 	567
f 648 	567 	651
f 623 	184 	641
f 641 	184 	185
f 641 	185 	648
f 523 	522 	658
f 544 	284 	659
f 544 	659 	660
f 544 	660 	546
f 192 	237 	661
f 192 	661 	659
f 192 	659 	284
f 658 	522 	662
f 662 	522 	519
f 662 	519 	663
f 663 	519 	520
f 663 	520 	664
f 664 	520 	521
f 664 	521 	546
f 665 	526 	666
f 666 	526 	525
f 666 	525 	667
f 667 	525 	524
f 667 	524 	668
f 668 	524 	523
f 668 	523 	658
f 669 	528 	670
f 670 	528 	527
f 670 	527 	671
f 671 	527 	526
f 671 	526 	665
f 531 	460 	672
f 672 	530 	529
f 672 	529 	673
f 673 	529 	528
f 673 	528 	669
f 674 	532 	675
f 675 	532 	531
f 675 	531 	672
f 532 	674 	533
f 676 	534 	674
f 533 	674 	534
f 677 	439 	676
f 534 	676 	439
f 211 	678 	212
f 212 	678 	679
f 212 	679 	214
f 680 	244 	679
f 214 	679 	244
f 681 	244 	680
f 682 	246 	681
f 244 	681 	246
f 683 	246 	682
f 684 	247 	683
f 246 	683 	247
f 247 	684 	685
f 247 	685 	216
f 216 	685 	686
f 216 	686 	218
f 218 	686 	687
f 218 	687 	220
f 688 	238 	687
f 220 	687 	238
f 238 	688 	661
f 238 	661 	237
f 203 	689 	690
f 203 	690 	241
f 241 	690 	691
f 241 	691 	239
f 239 	691 	692
f 239 	692 	242
f 242 	692 	678
f 242 	678 	211
f 682 	700 	683
f 694 	684 	693
f 683 	693 	684
f 684 	694 	695
f 684 	695 	685
f 685 	695 	696
f 685 	696 	686
f 686 	696 	697
f 686 	697 	687
f 687 	697 	698
f 687 	698 	688
f 699 	661 	698
f 688 	698 	661
f 661 	699 	660
f 661 	660 	659
f 693 	683 	700
f 681 	701 	682
f 700 	682 	701
f 680 	702 	681
f 701 	681 	702
f 679 	703 	680
f 702 	680 	703
f 678 	704 	679
f 703 	679 	704
f 704 	678 	692
f 704 	692 	705
f 705 	692 	691
f 705 	691 	706
f 690 	707 	691
f 706 	691 	707
f 689 	708 	690
f 707 	690 	708
f 546 	660 	664
f 664 	660 	699
f 664 	699 	663
f 698 	662 	699
f 663 	699 	662
f 662 	698 	697
f 662 	697 	658
f 658 	697 	696
f 658 	696 	668
f 668 	696 	695
f 668 	695 	667
f 667 	695 	694
f 667 	694 	666
f 693 	665 	694
f 666 	694 	665
f 700 	671 	693
f 665 	693 	671
f 701 	670 	700
f 671 	700 	670
f 702 	669 	701
f 670 	701 	669
f 703 	673 	702
f 669 	702 	673
f 704 	672 	703
f 673 	703 	672
f 672 	704 	705
f 672 	705 	675
f 675 	705 	706
f 675 	706 	674
f 707 	676 	706
f 674 	706 	676
f 708 	677 	707
f 676 	707 	677
f 411 	439 	709
f 709 	439 	677
f 709 	677 	708
f 709 	708 	710
f 710 	708 	689
f 710 	689 	283
f 283 	689 	203
f 440 	411 	709
f 440 	709 	710
f 440 	710 	283
f 440 	283 	297
f 440 	297 	294
f 440 	294 	410
f 407 	409 	290
f 290 	409 	291
f 409 	410 	291
f 291 	410 	294
f 543 	711 	301
f 713 	715 	712
f 714 	713 	712
f 715 	286 	288
f 288 	301 	715
f 716 	717 	711
f 301 	711 	717
f 717 	715 	301
f 712 	715 	717
f 285 	284 	301
f 543 	301 	284
f 543 	284 	544
f 421 	718 	639
f 421 	719 	718
f 104 	720 	719
f 104 	19 	720
f 719 	721 	718
f 19 	76 	720
f 720 	76 	722
f 723 	69 	724
f 69 	32 	724
f 634 	635 	725
f 725 	726 	634
f 633 	634 	726
f 726 	727 	633
f 725 	728 	729
f 654 	652 	730
f 654 	730 	731
f 654 	731 	732
f 654 	732 	101
f 4 	101 	732
f 4 	732 	733
f 4 	733 	65
f 652 	624 	730
f 730 	624 	625
f 625 	626 	730
f 734 	730 	626
f 734 	626 	735
f 735 	626 	627
f 735 	627 	628
f 722 	76 	736
f 736 	76 	74
f 736 	74 	737
f 737 	74 	72
f 72 	38 	737
f 738 	737 	38
f 738 	38 	739
f 739 	38 	36
f 36 	33 	739
f 740 	739 	33
f 33 	67 	740
f 741 	740 	67
f 741 	67 	742
f 742 	67 	723
f 723 	67 	69
f 724 	32 	743
f 743 	32 	744
f 744 	32 	29
f 733 	744 	65
f 28 	65 	744
f 28 	744 	29
f 718 	745 	639
f 638 	639 	745
f 638 	745 	637
f 637 	745 	746
f 637 	746 	636
f 636 	746 	747
f 636 	747 	635
f 635 	747 	748
f 635 	748 	725
f 633 	727 	632
f 632 	727 	749
f 632 	749 	631
f 631 	749 	750
f 631 	750 	751
f 631 	751 	630
f 630 	751 	752
f 630 	752 	629
f 629 	752 	753
f 629 	753 	628
f 628 	753 	754
f 628 	754 	735
f 721 	755 	718
f 745 	718 	755
f 745 	755 	746
f 746 	755 	756
f 746 	756 	747
f 747 	756 	757
f 747 	757 	748
f 748 	757 	728
f 748 	728 	725
f 731 	730 	758
f 758 	730 	734
f 758 	734 	759
f 759 	734 	735
f 759 	735 	754
f 754 	753 	759
f 760 	759 	753
f 760 	753 	761
f 761 	753 	752
f 761 	752 	762
f 762 	752 	751
f 751 	750 	762
f 763 	762 	750
f 750 	749 	763
f 764 	763 	749
f 749 	727 	764
f 765 	764 	727
f 727 	726 	765
f 729 	765 	726
f 729 	726 	725
f 732 	731 	733
f 733 	731 	758
f 733 	758 	744
f 744 	758 	759
f 759 	760 	744
f 743 	744 	760
f 743 	760 	724
f 724 	760 	761
f 724 	761 	723
f 723 	761 	762
f 762 	763 	723
f 742 	723 	763
f 763 	764 	742
f 741 	742 	764
f 764 	765 	741
f 740 	741 	765
f 765 	729 	740
f 739 	740 	729
f 729 	728 	739
f 738 	739 	728
f 738 	728 	737
f 737 	728 	757
f 737 	757 	736
f 736 	757 	756
f 736 	756 	722
f 722 	756 	755
f 755 	721 	722
f 720 	722 	721
f 720 	721 	719
f 103 	104 	766
f 766 	104 	719
f 766 	719 	767
f 421 	420 	719
f 719 	420 	767
f 768 	121 	122
f 655 	113 	769
f 770 	769 	771
f 771 	769 	113
f 121 	768 	113
f 771 	113 	768
f 772 	771 	768
f 772 	768 	773
f 773 	768 	774
f 773 	774 	775
f 102 	113 	101
f 101 	113 	655
f 101 	655 	654
f 106 	120 	414
f 430 	414 	120
f 767 	117 	766
f 103 	766 	117
f 416 	107 	413
f 413 	107 	106
f 413 	106 	414
f 767 	420 	117
f 117 	420 	430
f 117 	430 	120
f 776 	777 	714
f 778 	779 	780
f 781 	782 	780
f 778 	780 	782
f 783 	784 	785
f 785 	784 	786
f 785 	786 	787
f 787 	786 	777
f 787 	777 	788
f 788 	777 	776
f 788 	776 	789
f 790 	791 	776
f 789 	776 	791
f 791 	790 	792
f 793 	794 	790
f 792 	790 	794
f 795 	796 	793
f 794 	793 	796
f 781 	780 	795
f 796 	795 	780
f 797 	798 	799
f 799 	798 	800
f 799 	800 	801
f 801 	800 	779
f 801 	779 	802
f 798 	797 	803
f 803 	797 	804
f 803 	804 	805
f 805 	804 	806
f 805 	806 	807
f 808 	809 	806
f 807 	806 	809
f 809 	808 	785
f 809 	785 	787
f 782 	781 	716
f 716 	781 	795
f 716 	795 	717
f 717 	795 	793
f 717 	793 	712
f 712 	793 	790
f 712 	790 	776
f 712 	776 	714
f 779 	800 	780
f 798 	796 	800
f 780 	800 	796
f 803 	794 	798
f 796 	798 	794
f 805 	792 	803
f 794 	803 	792
f 807 	791 	805
f 792 	805 	791
f 809 	789 	807
f 791 	807 	789
f 789 	809 	787
f 789 	787 	788
f 713 	810 	715
f 812 	784 	811
f 812 	811 	813
f 812 	813 	814
f 814 	813 	815
f 814 	815 	816
f 817 	810 	777
f 777 	810 	713
f 777 	713 	714
f 715 	810 	818
f 818 	810 	819
f 818 	819 	820
f 820 	819 	814
f 820 	814 	816
f 783 	811 	784
f 784 	812 	786
f 812 	817 	786
f 786 	817 	777
f 810 	817 	819
f 819 	817 	812
f 819 	812 	814
f 286 	821 	289
f 290 	822 	823
f 815 	823 	816
f 816 	823 	822
f 816 	822 	820
f 820 	822 	824
f 820 	824 	818
f 818 	824 	821
f 818 	821 	715
f 715 	821 	286
f 290 	292 	822
f 822 	292 	302
f 822 	302 	824
f 824 	302 	289
f 824 	289 	821
f 825 	826 	827
f 826 	825 	828
f 828 	825 	829
f 828 	829 	830
f 830 	829 	802
f 830 	802 	779
f 802 	829 	831
f 831 	829 	832
f 827 	832 	825
f 825 	832 	829
f 402 	831 	431
f 431 	831 	832
f 402 	403 	831
f 443 	783 	412
f 412 	783 	785
f 412 	785 	404
f 404 	785 	808
f 404 	808 	806
f 404 	806 	405
f 405 	806 	804
f 804 	797 	405
f 406 	405 	797
f 406 	797 	419
f 419 	797 	799
f 419 	799 	403
f 403 	799 	801
f 403 	801 	831
f 831 	801 	802
f 441 	815 	442
f 442 	815 	813
f 442 	813 	443
f 443 	813 	811
f 443 	811 	783
f 441 	408 	815
f 815 	408 	823
f 408 	407 	823
f 823 	407 	290
f 826 	431 	827
f 431 	832 	827
f 833 	834 	429
f 429 	834 	835
f 429 	835 	446
f 826 	836 	431
f 431 	836 	837
f 431 	837 	424
f 424 	837 	838
f 424 	838 	425
f 425 	838 	839
f 425 	839 	426
f 840 	427 	839
f 426 	839 	427
f 427 	840 	841
f 427 	841 	428
f 428 	841 	833
f 428 	833 	429
f 842 	843 	844
f 826 	828 	836
f 836 	828 	830
f 836 	830 	845
f 845 	830 	779
f 845 	779 	846
f 846 	779 	778
f 846 	778 	847
f 847 	778 	848
f 847 	848 	849
f 849 	848 	850
f 849 	850 	851
f 851 	850 	852
f 852 	850 	853
f 852 	853 	854
f 854 	853 	842
f 854 	842 	844
f 844 	843 	855
f 855 	843 	856
f 855 	856 	857
f 857 	856 	858
f 857 	858 	859
f 857 	859 	860
f 860 	859 	861
f 860 	861 	862
f 862 	861 	863
f 863 	861 	864
f 863 	864 	865
f 865 	864 	866
f 865 	866 	867
f 867 	866 	868
f 867 	868 	869
f 869 	868 	870
f 869 	870 	646
f 646 	870 	540
f 646 	540 	418
f 418 	540 	447
f 871 	872 	542
f 872 	550 	542
f 873 	711 	874
f 551 	875 	876
f 864 	877 	866
f 878 	879 	850
f 848 	878 	850
f 782 	848 	778
f 874 	880 	873
f 716 	711 	873
f 716 	873 	878
f 716 	878 	848
f 716 	848 	782
f 881 	882 	548
f 548 	882 	880
f 548 	880 	547
f 874 	545 	880
f 547 	880 	545
f 545 	874 	711
f 545 	711 	543
f 864 	883 	877
f 877 	883 	884
f 877 	884 	885
f 885 	884 	872
f 885 	872 	871
f 550 	872 	886
f 872 	884 	886
f 886 	884 	887
f 886 	888 	550
f 550 	888 	889
f 550 	889 	551
f 551 	889 	875
f 551 	876 	549
f 549 	876 	890
f 549 	890 	881
f 549 	881 	548
f 891 	892 	861
f 861 	892 	883
f 861 	883 	864
f 861 	859 	891
f 891 	859 	858
f 891 	858 	893
f 858 	856 	893
f 893 	856 	843
f 893 	843 	894
f 842 	895 	843
f 894 	843 	895
f 895 	842 	853
f 895 	853 	896
f 896 	853 	850
f 896 	850 	879
f 894 	897 	893
f 893 	897 	898
f 893 	898 	891
f 887 	892 	898
f 891 	898 	892
f 884 	883 	887
f 892 	887 	883
f 897 	894 	899
f 895 	900 	894
f 899 	894 	900
f 900 	895 	896
f 900 	896 	901
f 901 	896 	879
f 901 	879 	902
f 878 	873 	879
f 902 	879 	873
f 889 	888 	898
f 898 	888 	886
f 898 	886 	887
f 882 	881 	901
f 901 	881 	890
f 901 	890 	900
f 876 	899 	890
f 900 	890 	899
f 899 	876 	875
f 899 	875 	897
f 897 	875 	889
f 897 	889 	898
f 873 	880 	902
f 902 	880 	882
f 902 	882 	901
f 770 	903 	904
f 846 	904 	905
f 905 	904 	903
f 903 	907 	905
f 906 	905 	907
f 907 	909 	906
f 908 	906 	909
f 909 	912 	908
f 910 	908 	912
f 911 	910 	912
f 912 	914 	911
f 913 	911 	914
f 913 	914 	915
f 915 	914 	916
f 915 	916 	917
f 917 	916 	918
f 917 	918 	834
f 834 	918 	835
f 915 	917 	913
f 913 	917 	919
f 919 	920 	913
f 911 	913 	920
f 920 	921 	911
f 910 	911 	921
f 921 	922 	910
f 908 	910 	922
f 922 	923 	908
f 906 	908 	923
f 923 	924 	906
f 905 	906 	924
f 905 	924 	846
f 846 	924 	845
f 903 	770 	907
f 907 	770 	771
f 909 	907 	771
f 771 	772 	909
f 912 	909 	772
f 912 	772 	773
f 912 	773 	914
f 914 	773 	775
f 914 	775 	916
f 836 	845 	837
f 837 	845 	924
f 837 	924 	838
f 838 	924 	923
f 838 	923 	839
f 839 	923 	922
f 839 	922 	840
f 840 	922 	921
f 840 	921 	841
f 841 	921 	920
f 920 	919 	841
f 833 	841 	919
f 833 	919 	834
f 834 	919 	917
f 775 	925 	916
f 925 	926 	916
f 835 	918 	927
f 927 	918 	928
f 928 	930 	927
f 929 	927 	930
f 929 	930 	931
f 931 	930 	932
f 918 	916 	928
f 928 	916 	926
f 928 	926 	930
f 930 	926 	933
f 930 	933 	932
f 932 	933 	934
f 768 	936 	774
f 935 	774 	936
f 936 	934 	935
f 933 	935 	934
f 926 	925 	933
f 935 	933 	925
f 935 	925 	774
f 774 	925 	775
f 932 	937 	938
f 939 	110 	109
f 937 	939 	109
f 109 	938 	937
f 122 	936 	768
f 940 	105 	107
f 105 	940 	109
f 109 	940 	938
f 940 	931 	938
f 938 	931 	932
f 932 	934 	937
f 937 	934 	936
f 937 	936 	939
f 939 	936 	122
f 939 	122 	110
f 444 	931 	415
f 415 	931 	940
f 415 	940 	416
f 416 	940 	107
f 835 	927 	446
f 446 	927 	929
f 446 	929 	445
f 445 	929 	931
f 445 	931 	444
f 648 	651 	941
f 846 	847 	904
f 942 	943 	851
f 851 	852 	942
f 944 	942 	852
f 852 	854 	944
f 945 	944 	854
f 854 	844 	945
f 946 	945 	844
f 844 	855 	946
f 946 	855 	947
f 855 	857 	947
f 948 	947 	857
f 857 	860 	948
f 949 	948 	860
f 860 	862 	949
f 862 	863 	950
f 653 	951 	657
f 656 	952 	953
f 656 	953 	954
f 651 	656 	954
f 651 	954 	941
f 951 	955 	956
f 951 	956 	957
f 957 	956 	958
f 957 	958 	959
f 959 	958 	960
f 959 	960 	961
f 954 	962 	941
f 958 	944 	960
f 960 	944 	945
f 960 	945 	963
f 963 	945 	946
f 963 	946 	964
f 946 	947 	964
f 965 	964 	947
f 947 	948 	965
f 966 	965 	948
f 966 	948 	949
f 655 	769 	653
f 951 	653 	769
f 951 	769 	955
f 955 	769 	770
f 955 	770 	967
f 863 	865 	950
f 950 	865 	968
f 950 	968 	962
f 962 	968 	969
f 962 	969 	941
f 941 	969 	970
f 941 	970 	648
f 770 	904 	967
f 967 	904 	847
f 967 	847 	943
f 943 	847 	849
f 943 	849 	851
f 657 	951 	957
f 657 	957 	650
f 650 	957 	959
f 650 	959 	649
f 649 	959 	961
f 649 	961 	952
f 649 	952 	656
f 960 	963 	961
f 963 	964 	961
f 952 	961 	964
f 952 	964 	953
f 953 	964 	965
f 953 	965 	954
f 954 	965 	966
f 954 	966 	962
f 967 	943 	955
f 956 	955 	943
f 956 	943 	958
f 958 	943 	942
f 958 	942 	944
f 962 	966 	950
f 950 	966 	949
f 950 	949 	862
f 971 	870 	868
f 971 	868 	877
f 866 	877 	868
f 971 	972 	537
f 871 	972 	885
f 885 	972 	971
f 885 	971 	877
f 871 	542 	972
f 972 	542 	538
f 972 	538 	537
f 540 	870 	539
f 539 	870 	971
f 539 	971 	537
f 973 	645 	644
f 973 	644 	974
f 647 	974 	644
f 646 	645 	869
f 869 	645 	973
f 869 	973 	867
f 647 	648 	974
f 974 	648 	970
f 974 	970 	973
f 973 	970 	969
f 973 	969 	968
f 973 	968 	867
f 867 	968 	865
# 1952 faces

 #end of obj_0

